<svg width="57" height="52" viewBox="0 0 57 52" fill="none" xmlns="http://www.w3.org/2000/svg">
<rect x="0.5" y="1" width="56" height="50" rx="6.5" fill="white"/>
<rect x="0.5" y="1" width="56" height="50" rx="6.5" stroke="#EAEAEA"/>
<path d="M29.7336 14C31.0835 14.0036 31.7687 14.0108 32.3603 14.0276L32.5931 14.036C32.8619 14.0456 33.127 14.0576 33.4474 14.072C34.7242 14.132 35.5953 14.3336 36.3597 14.63C37.1516 14.9348 37.8188 15.3475 38.486 16.0135C39.0964 16.6131 39.5685 17.3388 39.8695 18.1398C40.1659 18.9042 40.3675 19.7753 40.4275 21.0532C40.4419 21.3724 40.4539 21.6376 40.4635 21.9076L40.4707 22.1404C40.4887 22.7308 40.4959 23.4159 40.4983 24.7659L40.4995 25.661V27.2329C40.5024 28.1082 40.4932 28.9834 40.4719 29.8584L40.4647 30.0912C40.4551 30.3612 40.4431 30.6264 40.4287 30.9455C40.3687 32.2235 40.1647 33.0934 39.8695 33.859C39.5685 34.66 39.0964 35.3856 38.486 35.9853C37.8863 36.5957 37.1607 37.0679 36.3597 37.3688C35.5953 37.6652 34.7242 37.8668 33.4474 37.9268L32.5931 37.9628L32.3603 37.97C31.7687 37.9868 31.0835 37.9952 29.7336 37.9976L28.8385 37.9988H27.2677C26.3921 38.0019 25.5165 37.9927 24.6411 37.9712L24.4083 37.964C24.1234 37.9532 23.8386 37.9408 23.5539 37.9268C22.2772 37.8668 21.406 37.6652 20.6405 37.3688C19.8399 37.0677 19.1147 36.5955 18.5154 35.9853C17.9045 35.3858 17.432 34.6601 17.1307 33.859C16.8343 33.0946 16.6327 32.2235 16.5727 30.9455L16.5367 30.0912L16.5307 29.8584C16.5086 28.9834 16.4986 28.1082 16.5007 27.2329V24.7659C16.4974 23.8906 16.5062 23.0154 16.5271 22.1404L16.5355 21.9076C16.5451 21.6376 16.5571 21.3724 16.5715 21.0532C16.6315 19.7753 16.8331 18.9054 17.1295 18.1398C17.4315 17.3385 17.9049 16.6128 18.5166 16.0135C19.1155 15.4034 19.8403 14.9312 20.6405 14.63C21.406 14.3336 22.276 14.132 23.5539 14.072C23.8731 14.0576 24.1395 14.0456 24.4083 14.036L24.6411 14.0288C25.5161 14.0075 26.3913 13.9983 27.2665 14.0012L29.7336 14ZM28.5001 19.9997C26.9089 19.9997 25.3828 20.6318 24.2577 21.757C23.1325 22.8821 22.5004 24.4082 22.5004 25.9994C22.5004 27.5906 23.1325 29.1167 24.2577 30.2418C25.3828 31.367 26.9089 31.9991 28.5001 31.9991C30.0913 31.9991 31.6173 31.367 32.7425 30.2418C33.8677 29.1167 34.4998 27.5906 34.4998 25.9994C34.4998 24.4082 33.8677 22.8821 32.7425 21.757C31.6173 20.6318 30.0913 19.9997 28.5001 19.9997ZM28.5001 22.3996C28.9728 22.3995 29.4409 22.4925 29.8777 22.6734C30.3145 22.8542 30.7114 23.1193 31.0457 23.4535C31.38 23.7877 31.6453 24.1845 31.8262 24.6213C32.0072 25.058 32.1004 25.5261 32.1005 25.9988C32.1006 26.4715 32.0075 26.9397 31.8267 27.3764C31.6459 27.8132 31.3808 28.2101 31.0466 28.5444C30.7123 28.8788 30.3155 29.144 29.8788 29.325C29.4421 29.5059 28.974 29.5991 28.5013 29.5992C27.5465 29.5992 26.6309 29.2199 25.9558 28.5449C25.2807 27.8698 24.9015 26.9541 24.9015 25.9994C24.9015 25.0447 25.2807 24.129 25.9558 23.4539C26.6309 22.7788 27.5465 22.3996 28.5013 22.3996M34.801 18.1998C34.4032 18.1998 34.0216 18.3578 33.7404 18.6391C33.4591 18.9204 33.301 19.3019 33.301 19.6997C33.301 20.0975 33.4591 20.479 33.7404 20.7603C34.0216 21.0416 34.4032 21.1996 34.801 21.1996C35.1988 21.1996 35.5803 21.0416 35.8616 20.7603C36.1429 20.479 36.3009 20.0975 36.3009 19.6997C36.3009 19.3019 36.1429 18.9204 35.8616 18.6391C35.5803 18.3578 35.1988 18.1998 34.801 18.1998Z" fill="#31353B"/>
</svg>
