<svg width="40" height="40" viewBox="0 0 40 40" fill="none" xmlns="http://www.w3.org/2000/svg">
<rect width="40" height="40" rx="10" fill="white"/>
<path opacity="0.2" d="M28.8594 12.0996V28.5996C28.8594 28.7985 28.7804 28.9893 28.6397 29.1299C28.4991 29.2706 28.3083 29.3496 28.1094 29.3496H11.6094C11.4105 29.3496 11.2197 29.2706 11.079 29.1299C10.9384 28.9893 10.8594 28.7985 10.8594 28.5996V12.0996C10.8594 11.9007 10.9384 11.7099 11.079 11.5693C11.2197 11.4286 11.4105 11.3496 11.6094 11.3496H28.1094C28.3083 11.3496 28.4991 11.4286 28.6397 11.5693C28.7804 11.7099 28.8594 11.9007 28.8594 12.0996Z" fill="#0077B5"/>
<path d="M28.1094 10.5996H11.6094C11.2116 10.5996 10.83 10.7576 10.5487 11.0389C10.2674 11.3203 10.1094 11.7018 10.1094 12.0996V28.5996C10.1094 28.9974 10.2674 29.379 10.5487 29.6603C10.83 29.9416 11.2116 30.0996 11.6094 30.0996H28.1094C28.5072 30.0996 28.8887 29.9416 29.17 29.6603C29.4513 29.379 29.6094 28.9974 29.6094 28.5996V12.0996C29.6094 11.7018 29.4513 11.3203 29.17 11.0389C28.8887 10.7576 28.5072 10.5996 28.1094 10.5996ZM28.1094 28.5996H11.6094V12.0996H28.1094V28.5996ZM16.8594 18.8496V24.8496C16.8594 25.0485 16.7804 25.2393 16.6397 25.3799C16.4991 25.5206 16.3083 25.5996 16.1094 25.5996C15.9105 25.5996 15.7197 25.5206 15.579 25.3799C15.4384 25.2393 15.3594 25.0485 15.3594 24.8496V18.8496C15.3594 18.6507 15.4384 18.4599 15.579 18.3193C15.7197 18.1786 15.9105 18.0996 16.1094 18.0996C16.3083 18.0996 16.4991 18.1786 16.6397 18.3193C16.7804 18.4599 16.8594 18.6507 16.8594 18.8496ZM25.1094 21.4746V24.8496C25.1094 25.0485 25.0304 25.2393 24.8897 25.3799C24.7491 25.5206 24.5583 25.5996 24.3594 25.5996C24.1605 25.5996 23.9697 25.5206 23.829 25.3799C23.6884 25.2393 23.6094 25.0485 23.6094 24.8496V21.4746C23.6094 20.9773 23.4118 20.5004 23.0602 20.1488C22.7086 19.7972 22.2317 19.5996 21.7344 19.5996C21.2371 19.5996 20.7602 19.7972 20.4086 20.1488C20.0569 20.5004 19.8594 20.9773 19.8594 21.4746V24.8496C19.8594 25.0485 19.7804 25.2393 19.6397 25.3799C19.4991 25.5206 19.3083 25.5996 19.1094 25.5996C18.9105 25.5996 18.7197 25.5206 18.579 25.3799C18.4384 25.2393 18.3594 25.0485 18.3594 24.8496V18.8496C18.3603 18.6659 18.4286 18.4889 18.5514 18.3522C18.6741 18.2156 18.8428 18.1287 19.0254 18.1081C19.2079 18.0875 19.3917 18.1347 19.5418 18.2406C19.6919 18.3465 19.7979 18.5038 19.8397 18.6827C20.347 18.3386 20.9386 18.1391 21.5508 18.1057C22.1629 18.0724 22.7726 18.2064 23.3144 18.4934C23.8562 18.7804 24.3095 19.2096 24.6257 19.7348C24.942 20.2601 25.1092 20.8615 25.1094 21.4746ZM17.2344 16.2246C17.2344 16.4471 17.1684 16.6646 17.0448 16.8496C16.9212 17.0346 16.7455 17.1788 16.5399 17.264C16.3343 17.3491 16.1081 17.3714 15.8899 17.328C15.6717 17.2846 15.4712 17.1774 15.3139 17.0201C15.1565 16.8628 15.0494 16.6623 15.006 16.4441C14.9626 16.2259 14.9849 15.9997 15.07 15.7941C15.1552 15.5885 15.2994 15.4128 15.4844 15.2892C15.6694 15.1656 15.8869 15.0996 16.1094 15.0996C16.4077 15.0996 16.6939 15.2181 16.9049 15.4291C17.1158 15.6401 17.2344 15.9262 17.2344 16.2246Z" fill="#0077B5"/>
</svg>
