<svg width="57" height="52" viewBox="0 0 57 52" fill="none" xmlns="http://www.w3.org/2000/svg">
<rect x="0.5" y="1" width="56" height="50" rx="6.5" fill="white"/>
<rect x="0.5" y="1" width="56" height="50" rx="6.5" stroke="#EAEAEA"/>
<path d="M35.0268 14H21.9732C20.5216 14 19.1295 14.5766 18.1031 15.6031C17.0766 16.6295 16.5 18.0216 16.5 19.4732V32.5268C16.5 33.9784 17.0766 35.3705 18.1031 36.3969C19.1295 37.4234 20.5216 38 21.9732 38H35.0268C36.4784 38 37.8705 37.4234 38.8969 36.3969C39.9234 35.3705 40.5 33.9784 40.5 32.5268V19.4732C40.5 18.0216 39.9234 16.6295 38.8969 15.6031C37.8705 14.5766 36.4784 14 35.0268 14ZM24.6145 33.3748C24.6183 33.4418 24.6084 33.5088 24.5854 33.5719C24.5624 33.6349 24.5268 33.6926 24.4807 33.7413C24.4346 33.7901 24.379 33.8289 24.3173 33.8554C24.2557 33.8819 24.1893 33.8955 24.1222 33.8954H21.9314C21.7993 33.8922 21.6737 33.8372 21.5816 33.7424C21.4896 33.6476 21.4384 33.5205 21.4391 33.3883V24.2769C21.4373 24.2111 21.4487 24.1457 21.4726 24.0844C21.4965 24.0231 21.5325 23.9672 21.5784 23.92C21.6243 23.8729 21.6792 23.8354 21.7398 23.8098C21.8004 23.7842 21.8656 23.7711 21.9314 23.7711H24.1222C24.188 23.7711 24.2531 23.7842 24.3137 23.8098C24.3744 23.8354 24.4292 23.8729 24.4751 23.92C24.521 23.9672 24.557 24.0231 24.5809 24.0844C24.6049 24.1457 24.6163 24.2111 24.6145 24.2769V33.3748ZM22.9862 21.8548C22.749 21.853 22.5145 21.8045 22.296 21.7121C22.0775 21.6197 21.8794 21.4852 21.713 21.3162C21.5465 21.1472 21.415 20.9471 21.3258 20.7273C21.2367 20.5075 21.1918 20.2723 21.1935 20.0351C21.1953 19.7979 21.2438 19.5634 21.3362 19.3449C21.4286 19.1265 21.5631 18.9284 21.7321 18.7619C21.9011 18.5954 22.1012 18.4639 22.321 18.3748C22.5408 18.2856 22.776 18.2407 23.0132 18.2425C23.484 18.2578 23.9302 18.4565 24.2565 18.7961C24.5829 19.1358 24.7636 19.5896 24.76 20.0606C24.7565 20.5316 24.569 20.9826 24.2376 21.3174C23.9062 21.6521 23.4571 21.8441 22.9862 21.8523M36.2994 33.36C36.2988 33.4844 36.25 33.6036 36.1632 33.6927C36.0764 33.7818 35.9585 33.8337 35.8342 33.8375H33.5215C33.397 33.8337 33.2789 33.7816 33.1921 33.6923C33.1052 33.6029 33.0566 33.4833 33.0563 33.3588V29.1446C33.0563 28.5157 33.2483 26.4086 31.3874 26.4086C29.9363 26.4086 29.6495 27.8855 29.5942 28.5428V33.4548C29.5942 33.5796 29.5457 33.6995 29.4588 33.7891C29.372 33.8787 29.2536 33.9309 29.1289 33.9348H26.8852C26.7581 33.9344 26.6364 33.8837 26.5466 33.7937C26.4569 33.7038 26.4065 33.5819 26.4065 33.4548V24.2326C26.4103 24.1079 26.4626 23.9896 26.5522 23.9027C26.6418 23.8159 26.7617 23.7673 26.8865 23.7674H29.1289C29.2537 23.7673 29.3736 23.8159 29.4632 23.9027C29.5528 23.9896 29.6051 24.1079 29.6089 24.2326V25.0265C29.9363 24.5472 30.3884 24.1665 30.9163 23.9253C31.4442 23.6841 32.028 23.5916 32.6046 23.6578C36.34 23.6578 36.3265 27.1471 36.3265 29.1311L36.2994 33.36Z" fill="#31353B"/>
</svg>
