<svg width="57" height="52" viewBox="0 0 57 52" fill="none" xmlns="http://www.w3.org/2000/svg">
<rect x="0.5" y="1" width="56" height="50" rx="6.5" fill="white"/>
<rect x="0.5" y="1" width="56" height="50" rx="6.5" stroke="#EAEAEA"/>
<path opacity="0.2" d="M39.5757 25.9988C39.5757 28.1896 38.9261 30.3312 37.7089 32.1528C36.4918 33.9744 34.7618 35.3941 32.7378 36.2325C30.7137 37.0709 28.4865 37.2903 26.3378 36.8629C24.1891 36.4355 22.2154 35.3805 20.6662 33.8314C19.1171 32.2822 18.0621 30.3085 17.6347 28.1598C17.2073 26.0111 17.4267 23.7839 18.2651 21.7598C19.1034 19.7358 20.5232 18.0058 22.3448 16.7887C24.1664 15.5715 26.308 14.9219 28.4988 14.9219C31.4366 14.9219 34.254 16.0889 36.3314 18.1662C38.4087 20.2436 39.5757 23.061 39.5757 25.9988Z" fill="#31353B"/>
<path d="M28.5 14C26.1266 14 23.8066 14.7038 21.8332 16.0224C19.8598 17.3409 18.3217 19.2151 17.4135 21.4078C16.5052 23.6005 16.2676 26.0133 16.7306 28.3411C17.1936 30.6689 18.3365 32.807 20.0147 34.4853C21.693 36.1635 23.8311 37.3064 26.1589 37.7694C28.4867 38.2324 30.8995 37.9948 33.0922 37.0865C35.2849 36.1783 37.1591 34.6402 38.4776 32.6668C39.7962 30.6934 40.5 28.3734 40.5 26C40.4963 22.8185 39.2309 19.7684 36.9812 17.5188C34.7316 15.2691 31.6815 14.0037 28.5 14ZM38.6538 26C38.6547 26.9364 38.5254 27.8684 38.2696 28.7692H33.8262C34.1093 26.9339 34.1093 25.0661 33.8262 23.2308H38.2696C38.5254 24.1316 38.6547 25.0636 38.6538 26ZM25.5 30.6154H31.5C30.9089 32.5522 29.8828 34.3283 28.5 35.8077C27.1179 34.3278 26.0918 32.5519 25.5 30.6154ZM25.05 28.7692C24.733 26.9367 24.733 25.0633 25.05 23.2308H31.9592C32.2762 25.0633 32.2762 26.9367 31.9592 28.7692H25.05ZM18.3462 26C18.3453 25.0636 18.4747 24.1316 18.7304 23.2308H23.1738C22.8907 25.0661 22.8907 26.9339 23.1738 28.7692H18.7304C18.4747 27.8684 18.3453 26.9364 18.3462 26ZM31.5 21.3846H25.5C26.0911 19.4478 27.1172 17.6717 28.5 16.1923C29.8821 17.6722 30.9082 19.4481 31.5 21.3846ZM37.5381 21.3846H33.4281C32.91 19.4841 32.037 17.6989 30.855 16.1231C32.2831 16.4661 33.6202 17.114 34.7745 18.0221C35.9288 18.9303 36.8731 20.0773 37.5427 21.3846H37.5381ZM26.145 16.1231C24.963 17.6989 24.09 19.4841 23.5719 21.3846H19.4573C20.1269 20.0773 21.0712 18.9303 22.2255 18.0221C23.3798 17.114 24.7169 16.4661 26.145 16.1231ZM19.4573 30.6154H23.5719C24.09 32.5159 24.963 34.3011 26.145 35.8769C24.7169 35.5338 23.3798 34.886 22.2255 33.9779C21.0712 33.0697 20.1269 31.9227 19.4573 30.6154ZM30.855 35.8769C32.037 34.3011 32.91 32.5159 33.4281 30.6154H37.5427C36.8731 31.9227 35.9288 33.0697 34.7745 33.9779C33.6202 34.886 32.2831 35.5338 30.855 35.8769Z" fill="#31353B"/>
</svg>
