<svg width="40" height="40" viewBox="0 0 40 40" fill="none" xmlns="http://www.w3.org/2000/svg">
<rect width="40" height="40" rx="10" fill="white"/>
<path opacity="0.2" d="M27.5 28.25H23L12.5 11.75H17L27.5 28.25Z" fill="black"/>
<path d="M28.1311 27.8478L22.2623 18.6247L28.0532 12.2544C28.1842 12.1067 28.2517 11.9134 28.2411 11.7164C28.2305 11.5193 28.1427 11.3343 27.9966 11.2016C27.8505 11.0689 27.6581 10.9991 27.4609 11.0073C27.2637 11.0155 27.0777 11.1012 26.9432 11.2456L21.427 17.3131L17.631 11.3478C17.5634 11.2413 17.4699 11.1535 17.3593 11.0927C17.2486 11.0319 17.1245 11 16.9982 11H12.4982C12.3638 10.9999 12.2317 11.036 12.116 11.1045C12.0003 11.173 11.9051 11.2713 11.8404 11.3892C11.7757 11.5071 11.7439 11.6402 11.7483 11.7746C11.7527 11.909 11.7931 12.0397 11.8654 12.1531L17.7342 21.3753L11.9432 27.7503C11.8756 27.823 11.8231 27.9083 11.7887 28.0014C11.7543 28.0945 11.7387 28.1935 11.7428 28.2927C11.747 28.3918 11.7708 28.4892 11.8128 28.5791C11.8549 28.669 11.9143 28.7496 11.9878 28.8164C12.0612 28.8831 12.1472 28.9346 12.2407 28.9679C12.3342 29.0012 12.4334 29.0156 12.5325 29.0103C12.6316 29.0049 12.7286 28.98 12.818 28.9369C12.9074 28.8937 12.9874 28.8333 13.0532 28.7591L18.5695 22.6916L22.3654 28.6569C22.4337 28.7625 22.5274 28.8494 22.638 28.9093C22.7486 28.9693 22.8724 29.0005 22.9982 29H27.4982C27.6326 29 27.7644 28.9638 27.88 28.8954C27.9956 28.827 28.0907 28.7288 28.1554 28.611C28.22 28.4933 28.2519 28.3604 28.2476 28.2261C28.2433 28.0918 28.2031 27.9612 28.1311 27.8478ZM23.4098 27.5L13.8642 12.5H16.5829L26.1323 27.5H23.4098Z" fill="black"/>
</svg>
