<svg width="40" height="40" viewBox="0 0 40 40" fill="none" xmlns="http://www.w3.org/2000/svg">
<rect width="40" height="40" rx="10" fill="white"/>
<path opacity="0.2" d="M29 20C29 21.78 28.4722 23.5201 27.4832 25.0001C26.4943 26.4802 25.0887 27.6337 23.4442 28.3149C21.7996 28.9961 19.99 29.1743 18.2442 28.8271C16.4984 28.4798 14.8947 27.6226 13.636 26.364C12.3774 25.1053 11.5202 23.5016 11.1729 21.7558C10.8257 20.01 11.0039 18.2004 11.6851 16.5558C12.3663 14.9113 13.5198 13.5057 14.9999 12.5168C16.4799 11.5278 18.22 11 20 11C22.387 11 24.6761 11.9482 26.364 13.636C28.0518 15.3239 29 17.6131 29 20Z" fill="black"/>
<path d="M20 10.25C18.0716 10.25 16.1866 10.8218 14.5832 11.8932C12.9798 12.9645 11.7301 14.4873 10.9922 16.2688C10.2542 18.0504 10.0611 20.0108 10.4373 21.9021C10.8136 23.7934 11.7422 25.5307 13.1057 26.8943C14.4693 28.2579 16.2066 29.1865 18.0979 29.5627C19.9892 29.9389 21.9496 29.7458 23.7312 29.0078C25.5127 28.2699 27.0355 27.0202 28.1068 25.4168C29.1782 23.8134 29.75 21.9284 29.75 20C29.747 17.4151 28.7188 14.9368 26.891 13.109C25.0632 11.2812 22.585 10.253 20 10.25ZM28.25 20C28.2507 20.7608 28.1456 21.5181 27.9378 22.25H24.3275C24.5575 20.7588 24.5575 19.2412 24.3275 17.75H27.9378C28.1456 18.4819 28.2507 19.2392 28.25 20ZM17.5625 23.75H22.4375C21.9572 25.3237 21.1235 26.7667 20 27.9688C18.877 26.7664 18.0433 25.3235 17.5625 23.75ZM17.1969 22.25C16.9394 20.7611 16.9394 19.2389 17.1969 17.75H22.8106C23.0681 19.2389 23.0681 20.7611 22.8106 22.25H17.1969ZM11.75 20C11.7494 19.2392 11.8544 18.4819 12.0622 17.75H15.6725C15.4425 19.2412 15.4425 20.7588 15.6725 22.25H12.0622C11.8544 21.5181 11.7494 20.7608 11.75 20ZM22.4375 16.25H17.5625C18.0428 14.6763 18.8765 13.2333 20 12.0312C21.1231 13.2336 21.9567 14.6765 22.4375 16.25ZM27.3434 16.25H24.0041C23.5832 14.7059 22.8738 13.2553 21.9134 11.975C23.0738 12.2537 24.1602 12.7801 25.098 13.518C26.0359 14.2559 26.8032 15.1878 27.3472 16.25H27.3434ZM18.0866 11.975C17.1262 13.2553 16.4168 14.7059 15.9959 16.25H12.6528C13.1968 15.1878 13.9641 14.2559 14.902 13.518C15.8399 12.7801 16.9262 12.2537 18.0866 11.975ZM12.6528 23.75H15.9959C16.4168 25.2941 17.1262 26.7447 18.0866 28.025C16.9262 27.7463 15.8399 27.2199 14.902 26.482C13.9641 25.7441 13.1968 24.8122 12.6528 23.75ZM21.9134 28.025C22.8738 26.7447 23.5832 25.2941 24.0041 23.75H27.3472C26.8032 24.8122 26.0359 25.7441 25.098 26.482C24.1602 27.2199 23.0738 27.7463 21.9134 28.025Z" fill="black"/>
</svg>
