<svg width="57" height="52" viewBox="0 0 57 52" fill="none" xmlns="http://www.w3.org/2000/svg">
<rect x="0.5" y="1" width="56" height="50" rx="6.5" fill="white"/>
<rect x="0.5" y="1" width="56" height="50" rx="6.5" stroke="#EAEAEA"/>
<path d="M41.8307 26.0003C41.8307 18.6403 35.8574 12.667 28.4974 12.667C21.1374 12.667 15.1641 18.6403 15.1641 26.0003C15.1641 32.4537 19.7507 37.827 25.8307 39.067V30.0003H23.1641V26.0003H25.8307V22.667C25.8307 20.0937 27.9241 18.0003 30.4974 18.0003H33.8307V22.0003H31.1641C30.4307 22.0003 29.8307 22.6003 29.8307 23.3337V26.0003H33.8307V30.0003H29.8307V39.267C36.5641 38.6003 41.8307 32.9203 41.8307 26.0003Z" fill="#31353B"/>
</svg>
