<svg width="18" height="19" viewBox="0 0 18 19" fill="none" xmlns="http://www.w3.org/2000/svg">
<path d="M9 4.90039C9.49728 4.90039 9.97419 5.09793 10.3258 5.44957C10.6775 5.8012 10.875 6.27811 10.875 6.77539C10.875 7.02162 10.8265 7.26544 10.7323 7.49292C10.638 7.72041 10.4999 7.92711 10.3258 8.10122C10.1517 8.27533 9.94502 8.41344 9.71753 8.50766C9.49005 8.60189 9.24623 8.65039 9 8.65039C8.50272 8.65039 8.02581 8.45285 7.67417 8.10122C7.32254 7.74959 7.125 7.27267 7.125 6.77539C7.125 6.27811 7.32254 5.8012 7.67417 5.44957C8.02581 5.09793 8.50272 4.90039 9 4.90039ZM9 1.52539C10.3924 1.52539 11.7277 2.07851 12.7123 3.06308C13.6969 4.04765 14.25 5.383 14.25 6.77539C14.25 10.7129 9 16.5254 9 16.5254C9 16.5254 3.75 10.7129 3.75 6.77539C3.75 5.383 4.30312 4.04765 5.28769 3.06308C6.27226 2.07851 7.60761 1.52539 9 1.52539ZM9 3.02539C8.00544 3.02539 7.05161 3.42048 6.34835 4.12374C5.64509 4.827 5.25 5.78083 5.25 6.77539C5.25 7.52539 5.25 9.02539 9 14.0579C12.75 9.02539 12.75 7.52539 12.75 6.77539C12.75 5.78083 12.3549 4.827 11.6517 4.12374C10.9484 3.42048 9.99456 3.02539 9 3.02539Z" fill="url(#paint0_linear_1579_11761)"/>
<defs>
<linearGradient id="paint0_linear_1579_11761" x1="3.75" y1="9.02539" x2="14.25" y2="9.02539" gradientUnits="userSpaceOnUse">
<stop stop-color="#001FCC"/>
<stop offset="1" stop-color="#9D00FF"/>
</linearGradient>
</defs>
</svg>
