<svg width="20" height="21" viewBox="0 0 20 21" fill="none" xmlns="http://www.w3.org/2000/svg">
<path d="M8.33333 13.3594H13.3333M16.6667 5.02604V15.026C16.6667 15.4681 16.4911 15.892 16.1785 16.2046C15.866 16.5171 15.442 16.6927 15 16.6927H6.66667C6.22464 16.6927 5.80072 16.5171 5.48816 16.2046C5.17559 15.892 5 15.4681 5 15.026V5.02604C5 4.58401 5.17559 4.16009 5.48816 3.84753C5.80072 3.53497 6.22464 3.35938 6.66667 3.35938H15C15.442 3.35938 15.866 3.53497 16.1785 3.84753C16.4911 4.16009 16.6667 4.58401 16.6667 5.02604Z" stroke="url(#paint0_linear_1579_11768)" stroke-width="1.5" stroke-linecap="round" stroke-linejoin="round"/>
<path d="M3.33398 6.69336H5.83398M3.33398 10.0267H5.83398M3.33398 13.36H5.83398M9.16732 9.19336C9.16732 9.63539 9.34291 10.0593 9.65547 10.3719C9.96803 10.6844 10.392 10.86 10.834 10.86C11.276 10.86 11.6999 10.6844 12.0125 10.3719C12.3251 10.0593 12.5007 9.63539 12.5007 9.19336C12.5007 8.75133 12.3251 8.32741 12.0125 8.01485C11.6999 7.70229 11.276 7.52669 10.834 7.52669C10.392 7.52669 9.96803 7.70229 9.65547 8.01485C9.34291 8.32741 9.16732 8.75133 9.16732 9.19336Z" stroke="url(#paint1_linear_1579_11768)" stroke-width="1.5" stroke-linecap="round" stroke-linejoin="round"/>
<defs>
<linearGradient id="paint0_linear_1579_11768" x1="5" y1="10.026" x2="16.6667" y2="10.026" gradientUnits="userSpaceOnUse">
<stop stop-color="#001FCC"/>
<stop offset="1" stop-color="#9D00FF"/>
</linearGradient>
<linearGradient id="paint1_linear_1579_11768" x1="3.33398" y1="10.0267" x2="12.5007" y2="10.0267" gradientUnits="userSpaceOnUse">
<stop stop-color="#001FCC"/>
<stop offset="1" stop-color="#9D00FF"/>
</linearGradient>
</defs>
</svg>
