<svg width="16" height="17" viewBox="0 0 16 17" fill="none" xmlns="http://www.w3.org/2000/svg">
<path opacity="0.16" d="M2 3.35742L7.05733 8.41476C7.30737 8.66472 7.64645 8.80514 8 8.80514C8.35355 8.80514 8.69263 8.66472 8.94267 8.41476L14 3.35742V11.3574C14 11.711 13.8595 12.0502 13.6095 12.3002C13.3594 12.5503 13.0203 12.6908 12.6667 12.6908H3.33333C2.97971 12.6908 2.64057 12.5503 2.39052 12.3002C2.14048 12.0502 2 11.711 2 11.3574V3.35742Z" fill="url(#paint0_linear_1579_11715)"/>
<path d="M2.00065 3.35807V2.69141C1.82384 2.69141 1.65427 2.76164 1.52925 2.88667C1.40422 3.01169 1.33398 3.18126 1.33398 3.35807H2.00065ZM14.0007 3.35807H14.6673C14.6673 3.18126 14.5971 3.01169 14.4721 2.88667C14.347 2.76164 14.1775 2.69141 14.0007 2.69141V3.35807ZM2.00065 4.02474H14.0007V2.69141H2.00065V4.02474ZM13.334 3.35807V11.3581H14.6673V3.35807H13.334ZM12.6673 12.0247H3.33398V13.3581H12.6673V12.0247ZM2.66732 11.3581V3.35807H1.33398V11.3581H2.66732ZM3.33398 12.0247C3.15717 12.0247 2.9876 11.9545 2.86258 11.8295C2.73756 11.7045 2.66732 11.5349 2.66732 11.3581H1.33398C1.33398 11.8885 1.5447 12.3972 1.91977 12.7723C2.29484 13.1474 2.80355 13.3581 3.33398 13.3581V12.0247ZM13.334 11.3581C13.334 11.5349 13.2637 11.7045 13.1387 11.8295C13.0137 11.9545 12.8441 12.0247 12.6673 12.0247V13.3581C13.1978 13.3581 13.7065 13.1474 14.0815 12.7723C14.4566 12.3972 14.6673 11.8885 14.6673 11.3581H13.334Z" fill="url(#paint1_linear_1579_11715)"/>
<path d="M2 3.35742L8 9.35742L14 3.35742" stroke="url(#paint2_linear_1579_11715)" stroke-linecap="round" stroke-linejoin="round"/>
<defs>
<linearGradient id="paint0_linear_1579_11715" x1="2" y1="8.02409" x2="14" y2="8.02409" gradientUnits="userSpaceOnUse">
<stop stop-color="#001FCC"/>
<stop offset="1" stop-color="#9D00FF"/>
</linearGradient>
<linearGradient id="paint1_linear_1579_11715" x1="1.33398" y1="8.02474" x2="14.6673" y2="8.02474" gradientUnits="userSpaceOnUse">
<stop stop-color="#001FCC"/>
<stop offset="1" stop-color="#9D00FF"/>
</linearGradient>
<linearGradient id="paint2_linear_1579_11715" x1="2" y1="6.35742" x2="14" y2="6.35742" gradientUnits="userSpaceOnUse">
<stop stop-color="#001FCC"/>
<stop offset="1" stop-color="#9D00FF"/>
</linearGradient>
</defs>
</svg>
