<svg width="18" height="19" viewBox="0 0 18 19" fill="none" xmlns="http://www.w3.org/2000/svg">
<path d="M8.25 12.7754H5.25C4.2125 12.7754 3.32825 12.4096 2.59725 11.6781C1.86625 10.9466 1.5005 10.0624 1.5 9.02539C1.4995 7.98839 1.86525 7.10414 2.59725 6.37264C3.32925 5.64114 4.2135 5.27539 5.25 5.27539H8.25V6.77539H5.25C4.625 6.77539 4.09375 6.99414 3.65625 7.43164C3.21875 7.86914 3 8.40039 3 9.02539C3 9.65039 3.21875 10.1816 3.65625 10.6191C4.09375 11.0566 4.625 11.2754 5.25 11.2754H8.25V12.7754ZM6 9.77539V8.27539H12V9.77539H6ZM9.75 12.7754V11.2754H12.75C13.375 11.2754 13.9062 11.0566 14.3438 10.6191C14.7812 10.1816 15 9.65039 15 9.02539C15 8.40039 14.7812 7.86914 14.3438 7.43164C13.9062 6.99414 13.375 6.77539 12.75 6.77539H9.75V5.27539H12.75C13.7875 5.27539 14.672 5.64114 15.4035 6.37264C16.135 7.10414 16.5005 7.98839 16.5 9.02539C16.4995 10.0624 16.1338 10.9469 15.4028 11.6789C14.6718 12.4109 13.7875 12.7764 12.75 12.7754H9.75Z" fill="url(#paint0_linear_1580_11775)"/>
<defs>
<linearGradient id="paint0_linear_1580_11775" x1="1.5" y1="9.02539" x2="16.5" y2="9.02539" gradientUnits="userSpaceOnUse">
<stop stop-color="#001FCC"/>
<stop offset="1" stop-color="#9D00FF"/>
</linearGradient>
</defs>
</svg>
