<svg width="20" height="21" viewBox="0 0 20 21" fill="none" xmlns="http://www.w3.org/2000/svg">
<path fill-rule="evenodd" clip-rule="evenodd" d="M4.77817 1.72749C5.79234 0.719153 7.46234 0.89832 8.31151 2.03332L9.36317 3.43665C10.0548 4.35999 9.99317 5.64999 9.17234 6.46582L8.97401 6.66415C8.95152 6.74741 8.94923 6.83483 8.96734 6.91915C9.01984 7.25915 9.30401 7.97915 10.494 9.16249C11.684 10.3458 12.409 10.6292 12.754 10.6825C12.8409 10.7 12.9307 10.6974 13.0165 10.675L13.3565 10.3367C14.0865 9.61165 15.2065 9.47582 16.1098 9.96665L17.7015 10.8333C19.0657 11.5733 19.4098 13.4267 18.2932 14.5375L17.109 15.7142C16.7357 16.085 16.234 16.3942 15.6223 16.4517C14.114 16.5925 10.5998 16.4125 6.90567 12.74C3.45817 9.31165 2.79651 6.32165 2.71234 4.84832C2.67067 4.10332 3.02234 3.47332 3.47067 3.02832L4.77817 1.72749ZM7.31151 2.78249C6.88901 2.21832 6.10234 2.17332 5.65901 2.61415L4.35067 3.91415C4.07567 4.18749 3.94401 4.48915 3.96067 4.77749C4.02734 5.94832 4.56067 8.64582 7.78734 11.8542C11.1723 15.2192 14.2982 15.32 15.5065 15.2067C15.7532 15.1842 15.9982 15.0558 16.2273 14.8283L17.4107 13.6508C17.8923 13.1725 17.7865 12.3008 17.1048 11.9308L15.5132 11.065C15.0732 10.8267 14.5582 10.905 14.2382 11.2233L13.859 11.6008L13.4173 11.1575C13.859 11.6008 13.8582 11.6017 13.8573 11.6017L13.8565 11.6033L13.854 11.6058L13.8482 11.6108L13.8357 11.6225C13.8005 11.6551 13.7626 11.6847 13.7223 11.7108C13.6557 11.755 13.5673 11.8042 13.4565 11.845C13.2315 11.9292 12.9332 11.9742 12.5648 11.9175C11.8423 11.8067 10.8848 11.3142 9.61234 10.0492C8.34067 8.78415 7.84401 7.83249 7.73234 7.11082C7.67484 6.74249 7.72067 6.44415 7.80567 6.21915C7.85246 6.09254 7.91943 5.97435 8.00401 5.86915L8.03067 5.83999L8.04234 5.82749L8.04734 5.82249L8.04984 5.81999L8.05151 5.81832L8.29151 5.57999C8.64817 5.22415 8.69817 4.63499 8.36234 4.18582L7.31151 2.78249Z" fill="url(#paint0_linear_1579_11735)"/>
<defs>
<linearGradient id="paint0_linear_1579_11735" x1="2.70898" y1="8.77488" x2="18.9604" y2="8.77488" gradientUnits="userSpaceOnUse">
<stop stop-color="#001FCC"/>
<stop offset="1" stop-color="#9D00FF"/>
</linearGradient>
</defs>
</svg>
