<svg width="136" height="148" viewBox="0 0 136 148" fill="none" xmlns="http://www.w3.org/2000/svg">
<rect x="0.400391" y="0.0253906" width="135.13" height="147.13" rx="10" fill="white"/>
<rect x="10.4004" y="10.0254" width="115.13" height="115.13" rx="10" fill="#F7F8FF"/>
<rect x="42.0605" y="37.3691" width="50.3696" height="2.87826" rx="1.43913" fill="#BDBDBD"/>
<rect x="52.1348" y="33.0508" width="30.2217" height="2.87826" rx="1.43913" fill="#BDBDBD"/>
<rect x="33.4258" y="41.6855" width="67.6391" height="2.87826" rx="1.43913" fill="#BDBDBD"/>
<circle cx="67.9658" cy="25.8565" r="3.59783" fill="white" stroke="#BDBDBD" stroke-width="1.43913"/>
<rect x="29.6094" y="50.8203" width="34.9783" height="29.2217" rx="6.69565" fill="white"/>
<rect x="29.6094" y="50.8203" width="34.9783" height="29.2217" rx="6.69565" stroke="#EAEAEA"/>
<path opacity="0.3" d="M41.9414 72.0263H53.6943V60.2734H41.9414V72.0263ZM45.2994 67.1069L47.0959 69.2728L49.6144 66.024L52.8548 70.3474H42.7809L45.2994 67.1069Z" fill="#BDBDBD"/>
<path d="M53.6936 58.5938H41.9407C41.0173 58.5938 40.2617 59.3493 40.2617 60.2727V72.0256C40.2617 72.9491 41.0173 73.7046 41.9407 73.7046H53.6936C54.617 73.7046 55.3726 72.9491 55.3726 72.0256V60.2727C55.3726 59.3493 54.617 58.5938 53.6936 58.5938ZM53.6936 72.0256H41.9407V60.2727H53.6936V72.0256ZM49.6137 66.0317L47.0952 69.2721L45.2987 67.1062L42.7802 70.3466H52.8541L49.6137 66.0317Z" fill="#BDBDBD"/>
<rect x="29.6094" y="83.9219" width="34.9783" height="29.2217" rx="6.69565" fill="white"/>
<rect x="29.6094" y="83.9219" width="34.9783" height="29.2217" rx="6.69565" stroke="#EAEAEA"/>
<path opacity="0.3" d="M41.9414 105.128H53.6943V93.375H41.9414V105.128ZM45.2994 100.208L47.0959 102.374L49.6144 99.1255L52.8548 103.449H42.7809L45.2994 100.208Z" fill="#BDBDBD"/>
<path d="M53.6936 91.6973H41.9407C41.0173 91.6973 40.2617 92.4528 40.2617 93.3763V105.129C40.2617 106.053 41.0173 106.808 41.9407 106.808H53.6936C54.617 106.808 55.3726 106.053 55.3726 105.129V93.3763C55.3726 92.4528 54.617 91.6973 53.6936 91.6973ZM53.6936 105.129H41.9407V93.3763H53.6936V105.129ZM49.6137 99.1352L47.0952 102.376L45.2987 100.21L42.7802 103.45H52.8541L49.6137 99.1352Z" fill="#BDBDBD"/>
<rect x="71.3438" y="50.8203" width="34.9783" height="29.2217" rx="6.69565" fill="white"/>
<rect x="71.3438" y="50.8203" width="34.9783" height="29.2217" rx="6.69565" stroke="#EAEAEA"/>
<path opacity="0.3" d="M83.6758 72.0263H95.4287V60.2734H83.6758V72.0263ZM87.0338 67.1069L88.8303 69.2728L91.3487 66.024L94.5892 70.3474H84.5153L87.0338 67.1069Z" fill="#BDBDBD"/>
<path d="M95.4299 58.5938H83.677C82.7536 58.5938 81.998 59.3493 81.998 60.2727V72.0256C81.998 72.9491 82.7536 73.7046 83.677 73.7046H95.4299C96.3534 73.7046 97.1089 72.9491 97.1089 72.0256V60.2727C97.1089 59.3493 96.3534 58.5938 95.4299 58.5938ZM95.4299 72.0256H83.677V60.2727H95.4299V72.0256ZM91.35 66.0317L88.8315 69.2721L87.035 67.1062L84.5165 70.3466H94.5904L91.35 66.0317Z" fill="#BDBDBD"/>
<rect x="71.3438" y="83.9219" width="34.9783" height="29.2217" rx="6.69565" fill="white"/>
<rect x="71.3438" y="83.9219" width="34.9783" height="29.2217" rx="6.69565" stroke="#EAEAEA"/>
<path opacity="0.3" d="M83.6758 105.128H95.4287V93.375H83.6758V105.128ZM87.0338 100.208L88.8303 102.374L91.3487 99.1255L94.5892 103.449H84.5153L87.0338 100.208Z" fill="#BDBDBD"/>
<path d="M95.4299 91.6973H83.677C82.7536 91.6973 81.998 92.4528 81.998 93.3763V105.129C81.998 106.053 82.7536 106.808 83.677 106.808H95.4299C96.3534 106.808 97.1089 106.053 97.1089 105.129V93.3763C97.1089 92.4528 96.3534 91.6973 95.4299 91.6973ZM95.4299 105.129H83.677V93.3763H95.4299V105.129ZM91.35 99.1352L88.8315 102.376L87.035 100.21L84.5165 103.45H94.5904L91.35 99.1352Z" fill="#BDBDBD"/>
<path d="M49.626 137.156V128.756H50.826V137.156H49.626ZM61.1288 130.736C61.6408 130.736 62.0928 130.836 62.4848 131.036C62.8768 131.236 63.1808 131.54 63.3968 131.948C63.6208 132.356 63.7328 132.872 63.7328 133.496V137.156H62.5808V133.628C62.5808 133.012 62.4368 132.548 62.1488 132.236C61.8608 131.924 61.4568 131.768 60.9368 131.768C60.5528 131.768 60.2168 131.848 59.9288 132.008C59.6408 132.168 59.4168 132.404 59.2568 132.716C59.1048 133.028 59.0288 133.416 59.0288 133.88V137.156H57.8768V133.628C57.8768 133.012 57.7328 132.548 57.4448 132.236C57.1648 131.924 56.7608 131.768 56.2328 131.768C55.8568 131.768 55.5248 131.848 55.2368 132.008C54.9488 132.168 54.7248 132.404 54.5648 132.716C54.4048 133.028 54.3248 133.416 54.3248 133.88V137.156H53.1728V130.796H54.2768V132.488L54.0968 132.056C54.2968 131.64 54.6048 131.316 55.0208 131.084C55.4368 130.852 55.9208 130.736 56.4728 130.736C57.0808 130.736 57.6048 130.888 58.0448 131.192C58.4848 131.488 58.7728 131.94 58.9088 132.548L58.4408 132.356C58.6328 131.868 58.9688 131.476 59.4488 131.18C59.9288 130.884 60.4888 130.736 61.1288 130.736ZM69.8005 137.156V135.812L69.7405 135.56V133.268C69.7405 132.78 69.5965 132.404 69.3085 132.14C69.0285 131.868 68.6045 131.732 68.0365 131.732C67.6605 131.732 67.2925 131.796 66.9325 131.924C66.5725 132.044 66.2685 132.208 66.0205 132.416L65.5405 131.552C65.8685 131.288 66.2605 131.088 66.7165 130.952C67.1805 130.808 67.6645 130.736 68.1685 130.736C69.0405 130.736 69.7125 130.948 70.1845 131.372C70.6565 131.796 70.8925 132.444 70.8925 133.316V137.156H69.8005ZM67.7125 137.228C67.2405 137.228 66.8245 137.148 66.4645 136.988C66.1125 136.828 65.8405 136.608 65.6485 136.328C65.4565 136.04 65.3605 135.716 65.3605 135.356C65.3605 135.012 65.4405 134.7 65.6005 134.42C65.7685 134.14 66.0365 133.916 66.4045 133.748C66.7805 133.58 67.2845 133.496 67.9165 133.496H69.9325V134.324H67.9645C67.3885 134.324 67.0005 134.42 66.8005 134.612C66.6005 134.804 66.5005 135.036 66.5005 135.308C66.5005 135.62 66.6245 135.872 66.8725 136.064C67.1205 136.248 67.4645 136.34 67.9045 136.34C68.3365 136.34 68.7125 136.244 69.0325 136.052C69.3605 135.86 69.5965 135.58 69.7405 135.212L69.9685 136.004C69.8165 136.38 69.5485 136.68 69.1645 136.904C68.7805 137.12 68.2965 137.228 67.7125 137.228ZM75.8084 139.556C75.2244 139.556 74.6564 139.472 74.1044 139.304C73.5604 139.144 73.1164 138.912 72.7724 138.608L73.3244 137.72C73.6204 137.976 73.9844 138.176 74.4164 138.32C74.8484 138.472 75.3004 138.548 75.7724 138.548C76.5244 138.548 77.0764 138.372 77.4284 138.02C77.7804 137.668 77.9564 137.132 77.9564 136.412V135.068L78.0764 133.808L78.0164 132.536V130.796H79.1084V136.292C79.1084 137.412 78.8284 138.236 78.2684 138.764C77.7084 139.292 76.8884 139.556 75.8084 139.556ZM75.6644 136.892C75.0484 136.892 74.4964 136.764 74.0084 136.508C73.5284 136.244 73.1444 135.88 72.8564 135.416C72.5764 134.952 72.4364 134.416 72.4364 133.808C72.4364 133.192 72.5764 132.656 72.8564 132.2C73.1444 131.736 73.5284 131.376 74.0084 131.12C74.4964 130.864 75.0484 130.736 75.6644 130.736C76.2084 130.736 76.7044 130.848 77.1524 131.072C77.6004 131.288 77.9564 131.624 78.2204 132.08C78.4924 132.536 78.6284 133.112 78.6284 133.808C78.6284 134.496 78.4924 135.068 78.2204 135.524C77.9564 135.98 77.6004 136.324 77.1524 136.556C76.7044 136.78 76.2084 136.892 75.6644 136.892ZM75.7964 135.884C76.2204 135.884 76.5964 135.796 76.9244 135.62C77.2524 135.444 77.5084 135.2 77.6924 134.888C77.8844 134.576 77.9804 134.216 77.9804 133.808C77.9804 133.4 77.8844 133.04 77.6924 132.728C77.5084 132.416 77.2524 132.176 76.9244 132.008C76.5964 131.832 76.2204 131.744 75.7964 131.744C75.3724 131.744 74.9924 131.832 74.6564 132.008C74.3284 132.176 74.0684 132.416 73.8764 132.728C73.6924 133.04 73.6004 133.4 73.6004 133.808C73.6004 134.216 73.6924 134.576 73.8764 134.888C74.0684 135.2 74.3284 135.444 74.6564 135.62C74.9924 135.796 75.3724 135.884 75.7964 135.884ZM84.1416 137.228C83.4616 137.228 82.8616 137.088 82.3416 136.808C81.8296 136.528 81.4296 136.144 81.1416 135.656C80.8616 135.168 80.7216 134.608 80.7216 133.976C80.7216 133.344 80.8576 132.784 81.1296 132.296C81.4096 131.808 81.7896 131.428 82.2696 131.156C82.7576 130.876 83.3056 130.736 83.9136 130.736C84.5296 130.736 85.0736 130.872 85.5456 131.144C86.0176 131.416 86.3856 131.8 86.6496 132.296C86.9216 132.784 87.0576 133.356 87.0576 134.012C87.0576 134.06 87.0536 134.116 87.0456 134.18C87.0456 134.244 87.0416 134.304 87.0336 134.36H81.6216V133.532H86.4336L85.9656 133.82C85.9736 133.412 85.8896 133.048 85.7136 132.728C85.5376 132.408 85.2936 132.16 84.9816 131.984C84.6776 131.8 84.3216 131.708 83.9136 131.708C83.5136 131.708 83.1576 131.8 82.8456 131.984C82.5336 132.16 82.2896 132.412 82.1136 132.74C81.9376 133.06 81.8496 133.428 81.8496 133.844V134.036C81.8496 134.46 81.9456 134.84 82.1376 135.176C82.3376 135.504 82.6136 135.76 82.9656 135.944C83.3176 136.128 83.7216 136.22 84.1776 136.22C84.5536 136.22 84.8936 136.156 85.1976 136.028C85.5096 135.9 85.7816 135.708 86.0136 135.452L86.6496 136.196C86.3616 136.532 86.0016 136.788 85.5696 136.964C85.1456 137.14 84.6696 137.228 84.1416 137.228Z" fill="#555555"/>
</svg>
