<svg width="116" height="128" viewBox="0 0 116 128" fill="none" xmlns="http://www.w3.org/2000/svg">
<rect y="0.0253906" width="115.13" height="115.13" rx="10" fill="#F7F8FF"/>
<rect x="31.6621" y="31.6855" width="50.3696" height="2.87826" rx="1.43913" fill="#BDBDBD"/>
<rect x="41.7344" y="27.3691" width="30.2217" height="2.87826" rx="1.43913" fill="#BDBDBD"/>
<rect x="23.0273" y="36.0039" width="67.6391" height="2.87826" rx="1.43913" fill="#BDBDBD"/>
<rect x="9.13477" y="50.8945" width="47.3111" height="16.3424" rx="8.17122" fill="white"/>
<rect x="9.13477" y="50.8945" width="47.3111" height="16.3424" rx="8.17122" stroke="#EAEAEA"/>
<rect x="21.0215" y="54.1113" width="28.4911" height="2.47749" rx="1.23875" fill="#BDBDBD"/>
<rect x="21.0215" y="57.8262" width="28.4911" height="2.47749" rx="1.23875" fill="#BDBDBD"/>
<rect x="21.0215" y="61.543" width="28.4911" height="2.47749" rx="1.23875" fill="#BDBDBD"/>
<circle cx="13.5908" cy="59.0654" r="1.85812" fill="white" stroke="#BDBDBD" stroke-width="1.23875"/>
<rect x="9.13477" y="71.043" width="47.3111" height="16.3424" rx="8.17122" fill="white"/>
<rect x="9.13477" y="71.043" width="47.3111" height="16.3424" rx="8.17122" stroke="#EAEAEA"/>
<rect x="21.0215" y="74.2598" width="28.4911" height="2.47749" rx="1.23875" fill="#BDBDBD"/>
<rect x="21.0215" y="77.9766" width="28.4911" height="2.47749" rx="1.23875" fill="#BDBDBD"/>
<circle cx="13.5908" cy="79.2138" r="1.85812" fill="white" stroke="#BDBDBD" stroke-width="1.23875"/>
<rect x="58.6855" y="50.8945" width="47.3111" height="16.3424" rx="8.17122" fill="white"/>
<rect x="58.6855" y="50.8945" width="47.3111" height="16.3424" rx="8.17122" stroke="#EAEAEA"/>
<rect x="70.5723" y="54.1113" width="28.4911" height="2.47749" rx="1.23875" fill="#BDBDBD"/>
<rect x="70.5723" y="57.8262" width="28.4911" height="2.47749" rx="1.23875" fill="#BDBDBD"/>
<circle cx="63.1416" cy="59.0654" r="1.85812" fill="white" stroke="#BDBDBD" stroke-width="1.23875"/>
<rect x="58.6855" y="71.043" width="47.3111" height="16.3424" rx="8.17122" fill="white"/>
<rect x="58.6855" y="71.043" width="47.3111" height="16.3424" rx="8.17122" stroke="#EAEAEA"/>
<rect x="70.5723" y="74.2598" width="28.4911" height="2.47749" rx="1.23875" fill="#BDBDBD"/>
<rect x="70.5723" y="77.9766" width="28.4911" height="2.47749" rx="1.23875" fill="#BDBDBD"/>
<rect x="70.5723" y="81.6914" width="28.4911" height="2.47749" rx="1.23875" fill="#BDBDBD"/>
<circle cx="63.1416" cy="79.2138" r="1.85812" fill="white" stroke="#BDBDBD" stroke-width="1.23875"/>
<circle cx="57.5654" cy="20.1729" r="3.59783" fill="white" stroke="#BDBDBD" stroke-width="1.43913"/>
<path d="M47.919 127.156V119.8H45.039V118.756H51.987V119.8H49.107V127.156H47.919ZM55.3017 127.228C54.6217 127.228 54.0217 127.088 53.5017 126.808C52.9897 126.528 52.5897 126.144 52.3017 125.656C52.0217 125.168 51.8817 124.608 51.8817 123.976C51.8817 123.344 52.0177 122.784 52.2897 122.296C52.5697 121.808 52.9497 121.428 53.4297 121.156C53.9177 120.876 54.4657 120.736 55.0737 120.736C55.6897 120.736 56.2337 120.872 56.7057 121.144C57.1777 121.416 57.5457 121.8 57.8097 122.296C58.0817 122.784 58.2177 123.356 58.2177 124.012C58.2177 124.06 58.2137 124.116 58.2057 124.18C58.2057 124.244 58.2017 124.304 58.1937 124.36H52.7817V123.532H57.5937L57.1257 123.82C57.1337 123.412 57.0497 123.048 56.8737 122.728C56.6977 122.408 56.4537 122.16 56.1417 121.984C55.8377 121.8 55.4817 121.708 55.0737 121.708C54.6737 121.708 54.3177 121.8 54.0057 121.984C53.6937 122.16 53.4497 122.412 53.2737 122.74C53.0977 123.06 53.0097 123.428 53.0097 123.844V124.036C53.0097 124.46 53.1057 124.84 53.2977 125.176C53.4977 125.504 53.7737 125.76 54.1257 125.944C54.4777 126.128 54.8817 126.22 55.3377 126.22C55.7137 126.22 56.0537 126.156 56.3577 126.028C56.6697 125.9 56.9417 125.708 57.1737 125.452L57.8097 126.196C57.5217 126.532 57.1617 126.788 56.7297 126.964C56.3057 127.14 55.8297 127.228 55.3017 127.228ZM58.7176 127.156L61.4536 123.604L61.4416 124.192L58.8376 120.796H60.1216L62.1136 123.412H61.6216L63.6136 120.796H64.8736L62.2336 124.216L62.2456 123.604L65.0056 127.156H63.6976L61.5976 124.372L62.0656 124.444L60.0016 127.156H58.7176ZM68.4467 127.228C67.8067 127.228 67.3107 127.056 66.9587 126.712C66.6067 126.368 66.4307 125.876 66.4307 125.236V119.404H67.5827V125.188C67.5827 125.532 67.6667 125.796 67.8347 125.98C68.0107 126.164 68.2587 126.256 68.5787 126.256C68.9387 126.256 69.2387 126.156 69.4787 125.956L69.8387 126.784C69.6627 126.936 69.4507 127.048 69.2027 127.12C68.9627 127.192 68.7107 127.228 68.4467 127.228ZM65.3507 121.744V120.796H69.4067V121.744H65.3507Z" fill="#555555"/>
</svg>
